<svg width="14" height="14" viewBox="0 0 14 14" fill="none" xmlns="http://www.w3.org/2000/svg">
<path d="M0.508381 0.65583L0.577547 0.577497C0.721041 0.434016 0.911958 0.347823 1.11448 0.335089C1.317 0.322355 1.51721 0.383954 1.67755 0.50833L1.75588 0.577497L7.00005 5.82083L12.2442 0.577497C12.3211 0.497905 12.413 0.434419 12.5147 0.390745C12.6164 0.347071 12.7257 0.324083 12.8364 0.323121C12.947 0.32216 13.0568 0.343244 13.1592 0.385145C13.2616 0.427046 13.3546 0.488923 13.4329 0.567167C13.5111 0.645411 13.573 0.738454 13.6149 0.840868C13.6568 0.943282 13.6779 1.05301 13.6769 1.16366C13.676 1.27431 13.653 1.38366 13.6093 1.48533C13.5656 1.587 13.5021 1.67896 13.4225 1.75583L8.17921 7L13.4225 12.2442C13.566 12.3877 13.6522 12.5786 13.665 12.7811C13.6777 12.9836 13.6161 13.1838 13.4917 13.3442L13.4225 13.4225C13.2791 13.566 13.0881 13.6522 12.8856 13.6649C12.6831 13.6776 12.4829 13.616 12.3225 13.4917L12.2442 13.4225L7.00005 8.17916L1.75588 13.4225C1.59871 13.5743 1.38821 13.6583 1.16971 13.6564C0.951215 13.6545 0.742205 13.5669 0.587698 13.4123C0.433192 13.2578 0.345551 13.0488 0.343652 12.8303C0.341753 12.6118 0.425749 12.4013 0.577547 12.2442L5.82088 7L0.577547 1.75583C0.434067 1.61234 0.347874 1.42142 0.33514 1.2189C0.322405 1.01638 0.384004 0.816166 0.508381 0.65583Z" fill="#212121"/>
</svg>
