<svg width="18" height="18" viewBox="0 0 18 18" fill="none" xmlns="http://www.w3.org/2000/svg">
<path d="M0.25 2.9394C0.25 1.68421 1.26753 0.666672 2.52273 0.666672H10.4773C11.7325 0.666672 12.75 1.68421 12.75 2.9394V7.48485C12.75 8.74008 11.7325 9.75758 10.4773 9.75758H8.20455L5.1511 12.811C5.01986 12.9423 4.79545 12.8493 4.79545 12.6637V9.75758H2.52273C1.26753 9.75758 0.25 8.74008 0.25 7.48485V2.9394Z" fill="#A1A1AA"/>
<path d="M14.5814 4.83334C14.4664 4.83334 14.3731 4.92661 14.3731 5.04167V7.19698C14.3731 8.39584 13.9171 9.49048 13.1656 10.3238C12.2806 11.3052 10.9858 11.5 9.54327 11.5H8.58333C8.46348 11.5 8.34839 11.547 8.26274 11.6308L6.20075 13.8112C6.09949 13.9103 6.12497 14.0793 6.25749 14.1295C6.52765 14.2318 6.82131 14.2879 7.12836 14.2879H9.54327L12.8232 17.0455C12.9588 17.1594 13.1656 17.0631 13.1656 16.886V14.2879H15.2454C16.5792 14.2879 17.6621 13.2297 17.6621 11.9242V7.19698C17.6621 5.89157 16.5792 4.83334 15.2454 4.83334H14.5814Z" fill="#A1A1AA"/>
</svg>
