<svg width="18" height="18" viewBox="0 0 18 18" fill="none" xmlns="http://www.w3.org/2000/svg">
<path fill-rule="evenodd" clip-rule="evenodd" d="M8.99996 17.3333C13.6023 17.3333 17.3333 13.6024 17.3333 9.00001C17.3333 4.39763 13.6023 0.666672 8.99996 0.666672C4.39759 0.666672 0.666626 4.39763 0.666626 9.00001C0.666626 13.6024 4.39759 17.3333 8.99996 17.3333ZM13.1667 7.6785C13.4921 7.35307 13.4921 6.82543 13.1667 6.49999C12.8413 6.17456 12.3136 6.17456 11.9882 6.49999L7.62452 10.8637L5.71016 8.63026C5.41064 8.28082 4.88456 8.24035 4.53512 8.53987C4.18568 8.83939 4.14522 9.36547 4.44473 9.71491L6.94474 12.6316C7.0958 12.8078 7.31352 12.9131 7.54547 12.922C7.77742 12.9309 8.00257 12.8426 8.1667 12.6785L13.1667 7.6785Z" fill="#A1A1AA"/>
</svg>
