<svg width="16" height="4" viewBox="0 0 16 4" fill="none" xmlns="http://www.w3.org/2000/svg">
<path d="M8.83337 2.00001C8.83337 1.53977 8.46028 1.16668 8.00004 1.16668C7.5398 1.16668 7.16671 1.53977 7.16671 2.00001C7.16671 2.46025 7.5398 2.83334 8.00004 2.83334C8.46028 2.83334 8.83337 2.46025 8.83337 2.00001Z" stroke="black" stroke-width="1.66667" stroke-linecap="round" stroke-linejoin="round"/>
<path d="M3.00004 2.00001C3.00004 1.53977 2.62694 1.16668 2.16671 1.16668C1.70647 1.16668 1.33337 1.53977 1.33337 2.00001C1.33337 2.46025 1.70647 2.83334 2.16671 2.83334C2.62694 2.83334 3.00004 2.46025 3.00004 2.00001Z" stroke="black" stroke-width="1.66667" stroke-linecap="round" stroke-linejoin="round"/>
<path d="M14.6667 2.00001C14.6667 1.53977 14.2936 1.16668 13.8334 1.16668C13.3731 1.16668 13 1.53977 13 2.00001C13 2.46025 13.3731 2.83334 13.8334 2.83334C14.2936 2.83334 14.6667 2.46025 14.6667 2.00001Z" stroke="black" stroke-width="1.66667" stroke-linecap="round" stroke-linejoin="round"/>
</svg>
